<svg width="32" height="32" viewBox="0 0 32 32" fill="none" xmlns="http://www.w3.org/2000/svg">
<path d="M10.8922 30.555C10.8922 30.7211 10.8595 30.8856 10.7959 31.0391C10.7323 31.1926 10.6391 31.332 10.5217 31.4495C10.4042 31.567 10.2648 31.6601 10.1113 31.7237C9.9578 31.7873 9.79331 31.82 9.62719 31.82C8.93219 31.82 8.36719 31.2525 8.36719 30.555V25.7C8.36719 25.005 8.93219 24.4375 9.62719 24.4375C10.3272 24.4375 10.8922 25.005 10.8922 25.7V30.555ZM21.1097 30.555C21.1097 31.2525 21.6747 31.82 22.3722 31.82C23.0697 31.82 23.6347 31.2525 23.6347 30.555V25.7C23.6347 25.005 23.0697 24.4375 22.3722 24.4375C21.6747 24.4375 21.1097 25.005 21.1097 25.7V30.555Z" fill="#2F2F2F"/>
<path d="M28.8079 21.9397C28.8079 25.1422 26.2129 27.7347 23.0129 27.7347H8.98793C5.79043 27.7347 3.19043 25.1397 3.19043 21.9397V5.97469C3.19043 2.77219 5.78793 0.179688 8.98793 0.179688H23.0129C26.2154 0.179688 28.8079 2.77469 28.8079 5.97469V21.9397Z" fill="#68A691"/>
<path d="M26.2525 9.18828C26.2525 10.9133 24.8575 12.3133 23.1275 12.3133H8.875C7.15 12.3133 5.75 10.9133 5.75 9.18828V5.23578C5.75 3.51078 7.15 2.11328 8.875 2.11328H23.1275C24.8575 2.11328 26.2525 3.51078 26.2525 5.23578V9.18828Z" fill="white"/>
<path d="M10.0122 21.9448C10.0122 23.1048 9.06969 24.0448 7.90969 24.0448C6.74719 24.0448 5.80469 23.1048 5.80469 21.9448C5.80469 21.3866 6.02646 20.8511 6.42123 20.4564C6.81599 20.0616 7.35141 19.8398 7.90969 19.8398C9.06969 19.8398 10.0122 20.7823 10.0122 21.9448ZM21.9897 21.9448C21.9897 23.1048 22.9297 24.0448 24.0922 24.0448C25.2522 24.0448 26.1922 23.1048 26.1922 21.9448C26.1922 20.7823 25.2522 19.8398 24.0922 19.8398C22.9297 19.8398 21.9897 20.7823 21.9897 21.9448Z" fill="white"/>
</svg>
